<svg id="logo_small" xmlns="http://www.w3.org/2000/svg" viewBox="0 0 92.71 55.33">
    <path class="a"
          d="M25.44,37.15L21.2,25.75v11.4H17.38V18.88h4.68l5.08,13.41,5-13.41h4.65V37.15H33V25.75l-4.22,11.4H25.44Z"/>
    <path class="b"
          d="M61.34,18.93h6.3c3.56,0,6,1.93,6,5.3a4.48,4.48,0,0,1-3.3,4.61c2.31,1.16,3.66,4.4,4.11,8.31H70.51c-0.64-4-2.2-6.78-4.42-6.78H65.15v6.78h-3.8V18.93h0Zm6.3,3.67H65.15v4.1h2.49A2.05,2.05,0,1,0,67.64,22.6Z"/>
    <polygon class="a" points="44.42 55.33 0 55.33 0 0 44.42 0 44.42 5 5 5 5 50.33 44.42 50.33 44.42 55.33"/>
    <polygon class="a" points="45.19 18.92 40.91 18.92 53.29 34.55 53.29 29.14 45.19 18.92"/>
    <polygon class="b" points="92.71 20.09 90.27 20.09 87.83 20.09 87.83 35.42 90.27 35.42 92.71 35.42 92.71 20.09"/>
    <polygon class="b"
             points="87.83 12.09 90.27 12.09 92.71 12.09 92.71 0.06 80.35 0.06 80.35 2.5 80.35 4.94 87.83 4.94 87.83 12.09"/>
    <polygon class="b" points="71.68 4.94 71.68 2.5 71.68 0.06 53.29 0.06 53.29 2.5 53.29 4.94 71.68 4.94"/>
    <polygon class="b"
             points="87.83 43.42 87.83 50.39 80.35 50.39 80.35 52.83 80.35 55.27 92.71 55.27 92.71 43.42 90.27 43.42 87.83 43.42"/>
    <polygon class="b" points="53.29 50.39 53.29 52.83 53.29 55.27 71.68 55.27 71.68 52.83 71.68 50.39 53.29 50.39"/>
</svg>