<?xml version="1.0" encoding="utf-8"?>
<!-- Generator: Adobe Illustrator 19.2.1, SVG Export Plug-In . SVG Version: 6.00 Build 0)  -->
<svg version="1.1" id="messenger" xmlns="http://www.w3.org/2000/svg" xmlns:xlink="http://www.w3.org/1999/xlink" x="0px" y="0px"
	 viewBox="0 0 17.3 18.2" style="enable-background:new 0 0 17.3 18.2;" xml:space="preserve">
<style type="text/css">
	.st0{fill:#FFFFFF;}
</style>
<path class="st0" d="M8.6,0C3.9-0.1,0.1,3.7,0,8.4c0,2.5,1.1,4.8,3,6.4l0,0v3.5l3.3-1.8l0,0c0.8,0.2,1.6,0.3,2.4,0.3
	c4.7,0.1,8.5-3.7,8.6-8.4C17.2,3.7,13.4-0.1,8.6,0C8.7,0,8.6,0,8.6,0z M9.5,11.2L7.3,8.7l-4,2.3l4.4-4.9L10,8.4l3.9-2.3L9.5,11.2z"
	/>
</svg>
