<svg id="c05d1494-4c93-45b7-9442-26dbf46ba6aa" data-name="Layer 1" xmlns="http://www.w3.org/2000/svg" viewBox="0 0 205 172"><title>points_blue_vertical</title><circle cx="200.5" cy="4.5" r="4.5" style="fill:#002bff"/><circle cx="172.5" cy="4.5" r="4.5" style="fill:#002bff"/><circle cx="144.5" cy="4.5" r="4.5" style="fill:#002bff"/><circle cx="116.5" cy="4.5" r="4.5" style="fill:#002bff"/><circle cx="88.5" cy="4.5" r="4.5" style="fill:#002bff"/><circle cx="60.5" cy="4.5" r="4.5" style="fill:#002bff"/><circle cx="32.5" cy="4.5" r="4.5" style="fill:#002bff"/><circle cx="4.5" cy="4.5" r="4.5" style="fill:#002bff"/><circle cx="200.5" cy="27.5" r="4.5" style="fill:#002bff"/><circle cx="172.5" cy="27.5" r="4.5" style="fill:#002bff"/><circle cx="144.5" cy="27.5" r="4.5" style="fill:#002bff"/><circle cx="116.5" cy="27.5" r="4.5" style="fill:#002bff"/><circle cx="88.5" cy="27.5" r="4.5" style="fill:#002bff"/><circle cx="60.5" cy="27.5" r="4.5" style="fill:#002bff"/><circle cx="32.5" cy="27.5" r="4.5" style="fill:#002bff"/><circle cx="4.5" cy="27.5" r="4.5" style="fill:#002bff"/><circle cx="200.5" cy="51.5" r="4.5" style="fill:#002bff"/><circle cx="172.5" cy="51.5" r="4.5" style="fill:#002bff"/><circle cx="144.5" cy="51.5" r="4.5" style="fill:#002bff"/><circle cx="116.5" cy="51.5" r="4.5" style="fill:#002bff"/><circle cx="88.5" cy="51.5" r="4.5" style="fill:#002bff"/><circle cx="60.5" cy="51.5" r="4.5" style="fill:#002bff"/><circle cx="32.5" cy="51.5" r="4.5" style="fill:#002bff"/><circle cx="4.5" cy="51.5" r="4.5" style="fill:#002bff"/><circle cx="200.5" cy="74.5" r="4.5" style="fill:#002bff"/><circle cx="172.5" cy="74.5" r="4.5" style="fill:#002bff"/><circle cx="144.5" cy="74.5" r="4.5" style="fill:#002bff"/><circle cx="116.5" cy="74.5" r="4.5" style="fill:#002bff"/><circle cx="88.5" cy="74.5" r="4.5" style="fill:#002bff"/><circle cx="60.5" cy="74.5" r="4.5" style="fill:#002bff"/><circle cx="32.5" cy="74.5" r="4.5" style="fill:#002bff"/><circle cx="4.5" cy="74.5" r="4.5" style="fill:#002bff"/><circle cx="200.5" cy="97.5" r="4.5" style="fill:#002bff"/><circle cx="172.5" cy="97.5" r="4.5" style="fill:#002bff"/><circle cx="144.5" cy="97.5" r="4.5" style="fill:#002bff"/><circle cx="116.5" cy="97.5" r="4.5" style="fill:#002bff"/><circle cx="88.5" cy="97.5" r="4.5" style="fill:#002bff"/><circle cx="60.5" cy="97.5" r="4.5" style="fill:#002bff"/><circle cx="32.5" cy="97.5" r="4.5" style="fill:#002bff"/><circle cx="4.5" cy="97.5" r="4.5" style="fill:#002bff"/><circle cx="200.5" cy="120.5" r="4.5" style="fill:#002bff"/><circle cx="172.5" cy="120.5" r="4.5" style="fill:#002bff"/><circle cx="144.5" cy="120.5" r="4.5" style="fill:#002bff"/><circle cx="116.5" cy="120.5" r="4.5" style="fill:#002bff"/><circle cx="88.5" cy="120.5" r="4.5" style="fill:#002bff"/><circle cx="60.5" cy="120.5" r="4.5" style="fill:#002bff"/><circle cx="32.5" cy="120.5" r="4.5" style="fill:#002bff"/><circle cx="4.5" cy="120.5" r="4.5" style="fill:#002bff"/><circle cx="200.5" cy="144.5" r="4.5" style="fill:#002bff"/><circle cx="172.5" cy="144.5" r="4.5" style="fill:#002bff"/><circle cx="144.5" cy="144.5" r="4.5" style="fill:#002bff"/><circle cx="116.5" cy="144.5" r="4.5" style="fill:#002bff"/><circle cx="88.5" cy="144.5" r="4.5" style="fill:#002bff"/><circle cx="60.5" cy="144.5" r="4.5" style="fill:#002bff"/><circle cx="32.5" cy="144.5" r="4.5" style="fill:#002bff"/><circle cx="4.5" cy="144.5" r="4.5" style="fill:#002bff"/><circle cx="200.5" cy="167.5" r="4.5" style="fill:#002bff"/><circle cx="172.5" cy="167.5" r="4.5" style="fill:#002bff"/><circle cx="144.5" cy="167.5" r="4.5" style="fill:#002bff"/><circle cx="116.5" cy="167.5" r="4.5" style="fill:#002bff"/><circle cx="88.5" cy="167.5" r="4.5" style="fill:#002bff"/><circle cx="60.5" cy="167.5" r="4.5" style="fill:#002bff"/><circle cx="32.5" cy="167.5" r="4.5" style="fill:#002bff"/><circle cx="4.5" cy="167.5" r="4.5" style="fill:#002bff"/></svg>