<svg id="Layer_1" data-name="Layer 1" xmlns="http://www.w3.org/2000/svg" viewBox="0 0 127.64 192.38"><title>face_5</title><path d="M58.4,123.11c2.3-1.15,4.13,2.78,6.91,2.78" transform="translate(-0.05 -0.05)" style="fill:none;stroke:#000;stroke-linecap:round;stroke-linejoin:round;stroke-width:3.68503928184509px"/><path d="M55.38,111.88s-4.43,11.78,2.35,11.66" transform="translate(-0.05 -0.05)" style="fill:none;stroke:#000;stroke-linecap:round;stroke-linejoin:round;stroke-width:3.68503928184509px"/><path d="M72.21,123.11c-2.3-1.15-4.13,2.78-6.91,2.78" transform="translate(-0.05 -0.05)" style="fill:none;stroke:#000;stroke-linecap:round;stroke-linejoin:round;stroke-width:3.68503928184509px"/><path d="M76.95,111.88s4.43,11.78-2.35,11.66" transform="translate(-0.05 -0.05)" style="fill:none;stroke:#000;stroke-linecap:round;stroke-linejoin:round;stroke-width:3.68503928184509px"/><path d="M65.39,159.51a22.55,22.55,0,0,0-6.21.46,6.89,6.89,0,0,1-1.72.06c-3.15-1.16-6.38-6-8-9.57" transform="translate(-0.05 -0.05)" style="fill:none;stroke:#000;stroke-linecap:round;stroke-linejoin:round;stroke-width:3.68503928184509px"/><path d="M65.22,159.51a22.55,22.55,0,0,1,6.21.46,6.89,6.89,0,0,0,1.72.06c3.15-1.16,6.38-6,8-9.57" transform="translate(-0.05 -0.05)" style="fill:none;stroke:#000;stroke-linecap:round;stroke-linejoin:round;stroke-width:3.68503928184509px"/><path d="M47.48,150.9c11.35-1.15,11.44-2.88,17.66,1" transform="translate(-0.05 -0.05)" style="fill:none;stroke:#000;stroke-linecap:round;stroke-linejoin:round;stroke-width:3.68503928184509px"/><path d="M83.13,150.9c-11.35-1.15-11.44-2.88-17.66,1" transform="translate(-0.05 -0.05)" style="fill:none;stroke:#000;stroke-linecap:round;stroke-linejoin:round;stroke-width:3.68503928184509px"/><path d="M29.95,89.76S35.14,85,41.62,87c3.5,1.55,5.84,4.13,8.41,5.73" transform="translate(-0.05 -0.05)" style="fill:none;stroke:#000;stroke-linecap:round;stroke-linejoin:round;stroke-width:3.68503928184509px"/><path d="M58.28,90.7c2.1,1.54,2.61,2.69,2.61,3.68a22.55,22.55,0,0,1,0,5.84" transform="translate(-0.05 -0.05)" style="fill:none;stroke:#000;stroke-linecap:round;stroke-linejoin:round;stroke-width:3.68503928184509px"/><path d="M7.06,77.16c-1.39-.31-3.53.08-3.07,4.21a38.89,38.89,0,0,0,.67,3.83c1.56,7.15,1.13,18.72,1.13,18.72a14.44,14.44,0,0,0,9.93,11.37" transform="translate(-0.05 -0.05)" style="fill:none;stroke:#000;stroke-linecap:round;stroke-linejoin:round;stroke-width:3.68503928184509px"/><path d="M32.81,93.81a11.84,11.84,0,0,0,5.57,2.43,14.82,14.82,0,0,0,4.4-.47" transform="translate(-0.05 -0.05)" style="fill:none;stroke:#000;stroke-linecap:round;stroke-linejoin:round;stroke-width:3.68503928184509px"/><path d="M58,86.34s5.05-2,13.35,0" transform="translate(-0.05 -0.05)" style="fill:none;stroke:#000;stroke-linecap:round;stroke-linejoin:round;stroke-width:3.68503928184509px"/><circle cx="40.32" cy="90.63" r="3.43"/><path d="M99,89.76S93.83,85,87.35,87c-3.5,1.55-5.84,4.13-8.41,5.73" transform="translate(-0.05 -0.05)" style="fill:none;stroke:#000;stroke-linecap:round;stroke-linejoin:round;stroke-width:3.68503928184509px"/><path d="M96.16,93.81a11.84,11.84,0,0,1-5.57,2.43,14.82,14.82,0,0,1-4.4-.47" transform="translate(-0.05 -0.05)" style="fill:none;stroke:#000;stroke-linecap:round;stroke-linejoin:round;stroke-width:3.68503928184509px"/><circle cx="88.55" cy="90.63" r="3.43"/><path d="M68.34,141.35" transform="translate(-0.05 -0.05)" style="fill:none;stroke:#000;stroke-linecap:round;stroke-linejoin:round;stroke-width:3.68503928184509px"/><path d="M69.89,141.35" transform="translate(-0.05 -0.05)" style="fill:none;stroke:#000;stroke-linecap:round;stroke-linejoin:round;stroke-width:3.68503928184509px"/><path d="M3.76,72.83S0.21,53,2.89,41.15C5.77,28.33,18.69,13.86,31.47,9.21,64.25-2.7,88.87,2.73,93.72,6.09c9.4,6.5,7.22,9.27,12.77,11.45,21.92,8.61,19.26,50.1,19.26,50.1" transform="translate(-0.05 -0.05)" style="fill:none;stroke:#000;stroke-linecap:round;stroke-linejoin:round;stroke-width:3.68503928184509px"/><path d="M94.3,36.76C39.69-4.43,25.07,19.49,25.07,19.49" transform="translate(-0.05 -0.05)" style="fill:none;stroke:#000;stroke-linecap:round;stroke-linejoin:round;stroke-width:3.68503928184509px"/><path d="M80.38,37.1C14.13,13.85,11.27,45,11.27,45" transform="translate(-0.05 -0.05)" style="fill:none;stroke:#000;stroke-linecap:round;stroke-linejoin:round;stroke-width:3.68503928184509px"/><path d="M20,83.64c6.28-5.91,23.1-2.75,30.51-.75,7.26,2,8.28,8.95,4.83,15.86-4.68,9.38-21.37,15.93-30.16,7.6C20.75,102.11,14.66,88.7,20,83.64Z" transform="translate(-0.05 -0.05)" style="fill:none;stroke:#000;stroke-linecap:round;stroke-linejoin:round;stroke-width:3.68503928184509px"/><path d="M109.48,83.64c-6.28-5.91-23.1-2.75-30.51-.75-7.26,2-8.28,8.95-4.83,15.86,4.68,9.38,21.37,15.93,30.16,7.6C108.77,102.11,114.86,88.7,109.48,83.64Z" transform="translate(-0.05 -0.05)" style="fill:none;stroke:#000;stroke-linecap:round;stroke-linejoin:round;stroke-width:3.68503928184509px"/><line x1="32.8" y1="152.9" x2="32.8" y2="143.06" style="fill:none;stroke:#000;stroke-linecap:round;stroke-linejoin:round;stroke-width:3.68503928184509px"/><line x1="15.5" y1="141.94" x2="15.5" y2="132.1" style="fill:none;stroke:#000;stroke-linecap:round;stroke-linejoin:round;stroke-width:3.68503928184509px"/><line x1="15.5" y1="126.62" x2="15.5" y2="118.87" style="fill:none;stroke:#000;stroke-linecap:round;stroke-linejoin:round;stroke-width:3.68503928184509px"/><line x1="15.5" y1="115.25" x2="15.5" y2="100.18" style="fill:none;stroke:#000;stroke-linecap:round;stroke-linejoin:round;stroke-width:3.68503928184509px"/><path d="M122.71,77.16c1.39-.31,3.53.08,3.07,4.21a38.89,38.89,0,0,1-.67,3.83c-1.56,7.15-1.13,18.72-1.13,18.72A14.44,14.44,0,0,1,114,115.3" transform="translate(-0.05 -0.05)" style="fill:none;stroke:#000;stroke-linecap:round;stroke-linejoin:round;stroke-width:3.68503928184509px"/><line x1="114.17" y1="115.25" x2="114.17" y2="100.18" style="fill:none;stroke:#000;stroke-linecap:round;stroke-linejoin:round;stroke-width:3.68503928184509px"/><line x1="21.46" y1="138.9" x2="21.46" y2="118.87" style="fill:none;stroke:#000;stroke-linecap:round;stroke-linejoin:round;stroke-width:3.68503928184509px"/><line x1="27.22" y1="148.74" x2="27.22" y2="138.9" style="fill:none;stroke:#000;stroke-linecap:round;stroke-linejoin:round;stroke-width:3.68503928184509px"/><line x1="38.47" y1="148.74" x2="38.47" y2="138.9" style="fill:none;stroke:#000;stroke-linecap:round;stroke-linejoin:round;stroke-width:3.68503928184509px"/><line x1="43.86" y1="143.82" x2="43.86" y2="133.98" style="fill:none;stroke:#000;stroke-linecap:round;stroke-linejoin:round;stroke-width:3.68503928184509px"/><line x1="49.82" y1="139.39" x2="49.82" y2="129.55" style="fill:none;stroke:#000;stroke-linecap:round;stroke-linejoin:round;stroke-width:3.68503928184509px"/><line x1="55.21" y1="137.02" x2="55.21" y2="129.55" style="fill:none;stroke:#000;stroke-linecap:round;stroke-linejoin:round;stroke-width:3.68503928184509px"/><line x1="60.59" y1="136.17" x2="60.59" y2="129.55" style="fill:none;stroke:#000;stroke-linecap:round;stroke-linejoin:round;stroke-width:3.68503928184509px"/><line x1="65.41" y1="137.02" x2="65.41" y2="130.4" style="fill:none;stroke:#000;stroke-linecap:round;stroke-linejoin:round;stroke-width:3.68503928184509px"/><line x1="32.8" y1="165.76" x2="32.8" y2="157.48" style="fill:none;stroke:#000;stroke-linecap:round;stroke-linejoin:round;stroke-width:3.68503928184509px"/><line x1="21.46" y1="150.63" x2="21.46" y2="143.82" style="fill:none;stroke:#000;stroke-linecap:round;stroke-linejoin:round;stroke-width:3.68503928184509px"/><line x1="27.22" y1="159.42" x2="27.22" y2="152.9" style="fill:none;stroke:#000;stroke-linecap:round;stroke-linejoin:round;stroke-width:3.68503928184509px"/><line x1="38.47" y1="174.35" x2="38.47" y2="155.92" style="fill:none;stroke:#000;stroke-linecap:round;stroke-linejoin:round;stroke-width:3.68503928184509px"/><line x1="43.86" y1="180.97" x2="43.86" y2="164.51" style="fill:none;stroke:#000;stroke-linecap:round;stroke-linejoin:round;stroke-width:3.68503928184509px"/><line x1="49.82" y1="189.48" x2="49.82" y2="171.04" style="fill:none;stroke:#000;stroke-linecap:round;stroke-linejoin:round;stroke-width:3.68503928184509px"/><line x1="55.21" y1="182.58" x2="55.21" y2="172.74" style="fill:none;stroke:#000;stroke-linecap:round;stroke-linejoin:round;stroke-width:3.68503928184509px"/><line x1="55.21" y1="190.37" x2="55.21" y2="187.49" style="fill:none;stroke:#000;stroke-linecap:round;stroke-linejoin:round;stroke-width:3.68503928184509px"/><line x1="60.59" y1="182.39" x2="60.59" y2="175.77" style="fill:none;stroke:#000;stroke-linecap:round;stroke-linejoin:round;stroke-width:3.68503928184509px"/><line x1="60.59" y1="190.54" x2="60.59" y2="187.23" style="fill:none;stroke:#000;stroke-linecap:round;stroke-linejoin:round;stroke-width:3.68503928184509px"/><line x1="65.41" y1="190.54" x2="65.41" y2="175.5" style="fill:none;stroke:#000;stroke-linecap:round;stroke-linejoin:round;stroke-width:3.68503928184509px"/><path d="M49.58,150.68c1.37-4.54,4.84-7.86,8.93-8.45a10.29,10.29,0,0,1,6.28,1.21" transform="translate(-0.05 -0.05)" style="fill:none;stroke:#000;stroke-linecap:round;stroke-linejoin:round;stroke-width:3.68503928184509px"/><path d="M81.1,150.68c-1.37-4.54-4.84-7.86-8.93-8.45a10.29,10.29,0,0,0-6.28,1.21" transform="translate(-0.05 -0.05)" style="fill:none;stroke:#000;stroke-linecap:round;stroke-linejoin:round;stroke-width:3.68503928184509px"/><path d="M67.29,141.25" transform="translate(-0.05 -0.05)" style="fill:none;stroke:#000;stroke-linecap:round;stroke-linejoin:round;stroke-width:3.68503928184509px"/><path d="M65.75,141.25" transform="translate(-0.05 -0.05)" style="fill:none;stroke:#000;stroke-linecap:round;stroke-linejoin:round;stroke-width:3.68503928184509px"/><line x1="102.74" y1="152.79" x2="102.74" y2="142.96" style="fill:none;stroke:#000;stroke-linecap:round;stroke-linejoin:round;stroke-width:3.68503928184509px"/><line x1="114.08" y1="140.5" x2="114.08" y2="120.47" style="fill:none;stroke:#000;stroke-linecap:round;stroke-linejoin:round;stroke-width:3.68503928184509px"/><line x1="108.32" y1="148.64" x2="108.32" y2="138.8" style="fill:none;stroke:#000;stroke-linecap:round;stroke-linejoin:round;stroke-width:3.68503928184509px"/><line x1="108.32" y1="137.1" x2="108.32" y2="120" style="fill:none;stroke:#000;stroke-linecap:round;stroke-linejoin:round;stroke-width:3.68503928184509px"/><line x1="97.06" y1="148.64" x2="97.06" y2="138.8" style="fill:none;stroke:#000;stroke-linecap:round;stroke-linejoin:round;stroke-width:3.68503928184509px"/><line x1="91.68" y1="143.72" x2="91.68" y2="133.88" style="fill:none;stroke:#000;stroke-linecap:round;stroke-linejoin:round;stroke-width:3.68503928184509px"/><line x1="85.72" y1="139.28" x2="85.72" y2="129.44" style="fill:none;stroke:#000;stroke-linecap:round;stroke-linejoin:round;stroke-width:3.68503928184509px"/><line x1="80.33" y1="136.91" x2="80.33" y2="129.44" style="fill:none;stroke:#000;stroke-linecap:round;stroke-linejoin:round;stroke-width:3.68503928184509px"/><line x1="74.94" y1="136.06" x2="74.94" y2="129.44" style="fill:none;stroke:#000;stroke-linecap:round;stroke-linejoin:round;stroke-width:3.68503928184509px"/><line x1="70.12" y1="136.91" x2="70.12" y2="130.29" style="fill:none;stroke:#000;stroke-linecap:round;stroke-linejoin:round;stroke-width:3.68503928184509px"/><line x1="102.74" y1="165.65" x2="102.74" y2="157.37" style="fill:none;stroke:#000;stroke-linecap:round;stroke-linejoin:round;stroke-width:3.68503928184509px"/><line x1="108.32" y1="159.32" x2="108.32" y2="152.79" style="fill:none;stroke:#000;stroke-linecap:round;stroke-linejoin:round;stroke-width:3.68503928184509px"/><line x1="97.06" y1="174.25" x2="97.06" y2="155.81" style="fill:none;stroke:#000;stroke-linecap:round;stroke-linejoin:round;stroke-width:3.68503928184509px"/><line x1="91.68" y1="180.87" x2="91.68" y2="164.41" style="fill:none;stroke:#000;stroke-linecap:round;stroke-linejoin:round;stroke-width:3.68503928184509px"/><line x1="85.72" y1="189.38" x2="85.72" y2="170.94" style="fill:none;stroke:#000;stroke-linecap:round;stroke-linejoin:round;stroke-width:3.68503928184509px"/><line x1="80.33" y1="182.48" x2="80.33" y2="172.64" style="fill:none;stroke:#000;stroke-linecap:round;stroke-linejoin:round;stroke-width:3.68503928184509px"/><line x1="80.33" y1="190.27" x2="80.33" y2="187.39" style="fill:none;stroke:#000;stroke-linecap:round;stroke-linejoin:round;stroke-width:3.68503928184509px"/><line x1="74.94" y1="182.29" x2="74.94" y2="175.67" style="fill:none;stroke:#000;stroke-linecap:round;stroke-linejoin:round;stroke-width:3.68503928184509px"/><line x1="74.94" y1="190.44" x2="74.94" y2="187.13" style="fill:none;stroke:#000;stroke-linecap:round;stroke-linejoin:round;stroke-width:3.68503928184509px"/><line x1="70.12" y1="190.44" x2="70.12" y2="175.4" style="fill:none;stroke:#000;stroke-linecap:round;stroke-linejoin:round;stroke-width:3.68503928184509px"/><path d="M108.4,29.34s9.91,4,11.63,35.45" transform="translate(-0.05 -0.05)" style="fill:none;stroke:#000;stroke-linecap:round;stroke-linejoin:round;stroke-width:3.68503928184509px"/><path d="M15.55,74.43l0.17-22.12s2.48-17.65,48-4.4" transform="translate(-0.05 -0.05)" style="fill:none;stroke:#000;stroke-linecap:round;stroke-linejoin:round;stroke-width:3.68503928184509px"/><path d="M114.59,74.43l-0.17-22.12s-2.54-17.65-49.16-4.4" transform="translate(-0.05 -0.05)" style="fill:none;stroke:#000;stroke-linecap:round;stroke-linejoin:round;stroke-width:3.68503928184509px"/></svg>