<svg id="logo" data-name="Слой 1" xmlns="http://www.w3.org/2000/svg" viewBox="0 0 43 22">
    <title>logo</title>
    <g style="fill:#002bff">
        <path d="M28.8,6.53h3a2.55,2.55,0,0,1,2.85,2.61,2.2,2.2,0,0,1-1.56,2.27C34.15,12,34.8,13.57,35,15.5H33.14c-0.3-2-1-3.34-2.09-3.34H30.6V15.5H28.8v-9Zm3,1.81H30.6v2h1.18a0.94,0.94,0,0,0,1-1A0.94,0.94,0,0,0,31.78,8.33Z"
             />
        <polygon points="21.16 6.52 19.13 6.52 24.99 14.22 24.99 11.56 21.16 6.52"/>
        <rect x="22" width="3" height="3"/>
        <rect x="27" width="4" height="3"/>
        <rect x="40" y="6" width="3" height="4"/>
        <rect x="33" width="4" height="3"/>
        <polygon points="40 0 39 0 39 3 40 3 40 4 43 4 43 3 43 0 40 0"/>
        <polygon points="40 19 39 19 39 22 40 22 43 22 43 19 43 18 40 18 40 19"/>
        <rect x="40" y="12" width="3" height="4"/>
        <rect x="22" y="19" width="3" height="3"/>
        <rect x="27" y="19" width="4" height="3"/>
        <rect x="33" y="19" width="4" height="3"/>
    </g>
    <g style="fill: #000">
        <polygon points="20 3 20 0 3 0 0 0 0 3 0 19 0 22 3 22 20 22 20 19 3 19 3 3 20 3"/>
        <path d="M11.81,15.5l-2-5.61V15.5H8v-9h2.21l2.4,6.6L15,6.5h2.2v9H15.4V9.89l-2,5.61H11.81Z"/>
    </g>
</svg>

