<svg version="1.1" id="logo_main" xmlns="http://www.w3.org/2000/svg" xmlns:xlink="http://www.w3.org/1999/xlink" x="0px" y="0px"
	 viewBox="0 0 319.1 55.3" style="enable-background:new 0 0 319.1 55.3;" xml:space="preserve">
<style type="text/css">
	.st0{fill:#231F20;}
	.st1{fill:#002BFF;}
	.st2{enable-background:new    ;}
	.st3{fill:none;stroke:#231F20;stroke-width:5;stroke-miterlimit:10;}
	.st4{fill:none;stroke:#002BFF;stroke-width:4.88;stroke-miterlimit:10;}
	.st5{fill:none;stroke:#002BFF;stroke-width:4.88;stroke-miterlimit:10;stroke-dasharray:17.5897,8.7949;}
	.st6{fill:none;stroke:#002BFF;stroke-width:4.88;stroke-miterlimit:10;stroke-dasharray:16.1637,8.0818;}
</style>
<path class="st0" d="M28.1,37.1l-4.2-11.4v11.4h-3.8V18.9h4.7l5.1,13.4l5-13.4h4.6v18.2h-3.8V25.7l-4.2,11.4H28.1L28.1,37.1z"/>
<path class="st0" d="M54.8,33.2h-6.5L47,37.1h-4.3l6.8-18.2h4.3l6.8,18.2h-4.3L54.8,33.2z M49.6,29.5h4l-2-5.7L49.6,29.5z"/>
<path class="st0" d="M73.1,23.5c-1.2-0.8-2.5-1.3-3.9-1.3c-1.5,0-2.3,0.7-2.3,1.6c0.1,0.8,0.7,1.4,1.4,1.7l2.4,1.5
	c2.4,1.4,3.3,3,3.3,5c0,2.9-1.9,5.5-6.1,5.5c-1.6,0-3.1-0.3-4.6-0.9v-4.2c1.3,1,2.8,1.5,4.4,1.6c1.4,0,2.3-0.7,2.3-1.7
	c0-0.6-0.4-1.2-1.4-1.8L66,28.9c-2.4-1.4-3.2-3-3.2-5c0-2.5,1.6-5.3,6.4-5.3c1.3,0,2.7,0.3,3.9,0.8V23.5L73.1,23.5z"/>
<path class="st0" d="M81.2,22.6h-4.4v-3.7h12.6v3.7H85v14.5h-3.8L81.2,22.6L81.2,22.6z"/>
<path class="st0" d="M93.3,37.1V18.9h10.4v3.7h-6.6v3.5h6v3.7h-6v3.7h6.6v3.7L93.3,37.1L93.3,37.1z"/>
<path class="st0" d="M108.5,18.9h6.3c3.6,0,6,1.9,6,5.3c0.1,2.1-1.2,4.1-3.3,4.6c2.3,1.2,3.6,4.4,4.1,8.3h-3.9
	c-0.6-4-2.2-6.8-4.4-6.8h-0.9v6.8h-3.8L108.5,18.9L108.5,18.9z M114.8,22.6h-2.5v4.1h2.5c1.1,0.1,2.1-0.8,2.2-1.9
	c0.1-1.1-0.8-2.1-1.9-2.2C115,22.5,114.9,22.5,114.8,22.6z"/>
<path class="st1" d="M207.3,18.4h6.3c3.6,0,6,1.9,6,5.3c0.1,2.1-1.2,4.1-3.3,4.6c2.3,1.2,3.6,4.4,4.1,8.3h-3.9
	c-0.6-4-2.2-6.8-4.4-6.8h-0.9v6.8h-3.8V18.4z M213.6,22h-2.5v4.1h2.5c1.1,0,2-0.9,2-2.1S214.7,22,213.6,22L213.6,22L213.6,22z"/>
<path class="st1" d="M225.6,36.6V18.4H236V22h-6.6v3.5h6v3.7h-6v3.7h6.6v3.7L225.6,36.6L225.6,36.6z"/>
<path class="st1" d="M251.2,22.9c-1.2-0.8-2.5-1.3-3.9-1.3c-1.5,0-2.3,0.7-2.3,1.6c0.1,0.8,0.7,1.4,1.4,1.7l2.4,1.5
	c2.4,1.4,3.3,3,3.3,5c0,2.9-1.9,5.5-6.1,5.5c-1.6,0-3.1-0.3-4.6-0.9v-4.2c1.3,1,2.8,1.5,4.5,1.6c1.5,0,2.3-0.7,2.3-1.7
	c0-0.6-0.4-1.2-1.5-1.8l-2.5-1.5c-2.4-1.4-3.2-3-3.2-5c0-2.5,1.6-5.3,6.4-5.3c1.3,0,2.7,0.3,3.9,0.8V22.9L251.2,22.9z"/>
<path class="st1" d="M257.4,18.4h3.8v18.2h-3.8V18.4z"/>
<path class="st1" d="M271.3,32.9h6.8v3.7h-11.5v-3.2l6.7-11.3h-6.4v-3.7h11.2v3.3L271.3,32.9z"/>
<path class="st1" d="M283.6,36.6V18.4H294V22h-6.6v3.5h6v3.7h-6v3.7h6.6v3.7L283.6,36.6L283.6,36.6z"/>
<g class="st2">
	<path class="st0" d="M166.5,33.6c-0.8,0.9-1.7,1.6-2.7,2c-1,0.5-2,0.7-3.1,0.7c-2.1,0-3.7-0.7-4.9-2.1c-1-1.1-1.5-2.4-1.5-3.8
		c0-1.3,0.4-2.4,1.2-3.4c0.8-1,2-1.9,3.6-2.7c-0.9-1-1.5-1.9-1.8-2.6s-0.5-1.3-0.5-1.9c0-1.2,0.5-2.3,1.4-3.2c1-0.9,2.2-1.3,3.6-1.3
		c1.4,0,2.5,0.4,3.4,1.3c0.9,0.8,1.3,1.9,1.3,3.1c0,1.9-1.3,3.6-3.8,4.9l3.6,4.6c0.4-0.8,0.7-1.7,1-2.8l2.6,0.6
		c-0.4,1.8-1,3.2-1.8,4.4c0.9,1.2,2,2.3,3.2,3.1l-1.7,2C168.6,35.8,167.5,34.9,166.5,33.6z M164.9,31.7l-4.6-5.6
		c-1.3,0.8-2.2,1.5-2.7,2.2c-0.5,0.7-0.7,1.4-0.7,2c0,0.8,0.3,1.7,1,2.6c0.7,0.9,1.6,1.3,2.8,1.3c0.7,0,1.5-0.2,2.3-0.7
		C163.8,33,164.4,32.4,164.9,31.7z M161.4,23.1c1.1-0.6,1.8-1.2,2.1-1.7s0.5-1,0.5-1.6c0-0.7-0.2-1.3-0.7-1.7
		c-0.4-0.4-1-0.7-1.6-0.7c-0.7,0-1.2,0.2-1.7,0.6c-0.4,0.4-0.7,1-0.7,1.6c0,0.3,0.1,0.6,0.2,1c0.2,0.3,0.4,0.7,0.7,1.1L161.4,23.1z"
		/>
</g>
<rect x="2.5" y="2.5" class="st3" width="138.2" height="50.3"/>
<polyline class="st4" points="316.7,43.8 316.7,52.8 307.7,52.8 "/>
<line class="st5" x1="298.9" y1="52.8" x2="197.8" y2="52.8"/>
<polyline class="st4" points="193.4,52.8 184.4,52.8 184.4,43.8 "/>
<line class="st6" x1="184.4" y1="35.8" x2="184.4" y2="15.5"/>
<polyline class="st4" points="184.4,11.5 184.4,2.5 193.4,2.5 "/>
<line class="st5" x1="202.2" y1="2.5" x2="303.3" y2="2.5"/>
<polyline class="st4" points="307.7,2.5 316.7,2.5 316.7,11.5 "/>
<line class="st6" x1="316.7" y1="19.6" x2="316.7" y2="39.8"/>
</svg>
