<svg class="master_icon" xmlns="http://www.w3.org/2000/svg" viewBox="0 0 143.2 55.33">
    <rect class="a" width="143.2" height="55.33"/>
    <path class="b"
          d="M132.71,561.35L128.48,550v11.36h-3.8V543.13h4.66l5.06,13.37,5-13.37h4.64v18.22h-3.8V550L136,561.35h-3.32Z"
          transform="translate(-103.65 -524.03)"/>
    <path class="b" d="M159.46,557.47h-6.51l-1.37,3.88h-4.26l6.75-18.22h4.26l6.75,18.22h-4.26Zm-5.25-3.67h4l-2-5.68Z"
          transform="translate(-103.65 -524.03)"/>
    <path class="b"
          d="M177.71,547.71a7.51,7.51,0,0,0-3.94-1.31c-1.53,0-2.25.7-2.25,1.63a2.19,2.19,0,0,0,1.37,1.66l2.41,1.45c2.36,1.42,3.3,3,3.3,5,0,2.87-1.9,5.47-6.14,5.47a12.31,12.31,0,0,1-4.61-.94V556.5a7.84,7.84,0,0,0,4.45,1.58c1.45,0,2.25-.7,2.25-1.69,0-.62-0.43-1.18-1.45-1.77l-2.49-1.47c-2.41-1.39-3.16-2.95-3.16-5,0-2.54,1.63-5.3,6.35-5.3a9.83,9.83,0,0,1,3.91.83v4Z"
          transform="translate(-103.65 -524.03)"/>
    <path class="b" d="M185.83,546.8h-4.42v-3.67h12.65v3.67h-4.42v14.55h-3.8V546.8Z"
          transform="translate(-103.65 -524.03)"/>
    <path class="b" d="M197.95,561.35V543.13h10.37v3.67h-6.56v3.54h6V554h-6v3.67h6.56v3.67H197.95Z"
          transform="translate(-103.65 -524.03)"/>
    <path class="b"
          d="M213.17,543.13h6.3c3.56,0,6,1.93,6,5.31a4.48,4.48,0,0,1-3.3,4.61c2.28,1.18,3.64,4.39,4.07,8.31h-3.94c-0.64-4-2.2-6.78-4.42-6.78H217v6.78h-3.8V543.13Zm6.3,3.67H217v4.1h2.49A2.05,2.05,0,1,0,219.47,546.8Z"
          transform="translate(-103.65 -524.03)"/>
    <path class="b" d="M246.85,579.36H103.65V524h143.2v55.33Zm-138.2-5h133.2V529H108.65v45.33Z"
          transform="translate(-103.65 -524.03)"/>
</svg>