<svg xmlns="http://www.w3.org/2000/svg" viewBox="0 0 17 21.2"><defs><style>.a{isolation:isolate;}.b{fill:#231f20;}</style></defs><title>&amp;amp;</title><g class="a"><path class="b" d="M166.5,33.6a7.32,7.32,0,0,1-2.7,2,6.7,6.7,0,0,1-3.1.7,6.07,6.07,0,0,1-4.9-2.1,5.54,5.54,0,0,1-1.5-3.8,5.23,5.23,0,0,1,1.2-3.4,10.59,10.59,0,0,1,3.6-2.7,10.2,10.2,0,0,1-1.8-2.6,4.89,4.89,0,0,1-.5-1.9,4.48,4.48,0,0,1,1.4-3.2,5.15,5.15,0,0,1,3.6-1.3,4.52,4.52,0,0,1,3.4,1.3,4,4,0,0,1,1.3,3.1c0,1.9-1.3,3.6-3.8,4.9l3.6,4.6a15.08,15.08,0,0,0,1-2.8l2.6,0.6a12.67,12.67,0,0,1-1.8,4.4,13.43,13.43,0,0,0,3.2,3.1l-1.7,2A13.72,13.72,0,0,1,166.5,33.6Zm-1.6-1.9-4.6-5.6a9.33,9.33,0,0,0-2.7,2.2,3.46,3.46,0,0,0-.7,2,4.27,4.27,0,0,0,1,2.6,3.29,3.29,0,0,0,2.8,1.3,4.35,4.35,0,0,0,2.3-.7A6.56,6.56,0,0,0,164.9,31.7Zm-3.5-8.6a5.6,5.6,0,0,0,2.1-1.7,3,3,0,0,0,.5-1.6,2.06,2.06,0,0,0-.7-1.7,2.36,2.36,0,0,0-1.6-.7,2.52,2.52,0,0,0-1.7.6,2.36,2.36,0,0,0-.7,1.6,4.4,4.4,0,0,0,.2,1c0.2,0.3.4,0.7,0.7,1.1Z" transform="translate(-154.3 -15.3)"/></g></svg>