<svg id="Layer_1" data-name="Layer 1" xmlns="http://www.w3.org/2000/svg" viewBox="0 0 167.26 319.21"><title>face_2</title><path d="M97.85,203.57s7.47-10,17.17-11c11.26-1.07,19.44,8.53,19.44,8.53" transform="translate(-0.05 0)" style="fill:none;stroke:#000;stroke-linecap:round;stroke-linejoin:round;stroke-width:3px"/><path d="M133.62,207.55s-1.29-1.4-3.93-3.71a19.38,19.38,0,0,0-15.9-5.12c-8.24,1-15.92,11.71-16,11.88,0,0,.78.16,4.4,1.07s6.23,4.45,15.71,3.8S133.62,207.55,133.62,207.55Z" transform="translate(-0.05 0)" style="fill:none;stroke:#000;stroke-linecap:round;stroke-linejoin:round;stroke-width:3px"/><ellipse cx="115.54" cy="205.19" rx="5.89" ry="6.33" transform="translate(-103.09 292.79) rotate(-82.46)"/><path d="M92,190.38c-0.18,0,6.13-8,8.64-8.68s20.9-6.41,24.16-7,9.8,0.72,14.76,7,5.68,8.63,5.68,8.63-10.89-9.67-15.18-9.45-18.41,6.51-25,8.41A43.3,43.3,0,0,1,92,190.82" transform="translate(-0.05 0)" style="fill:none;stroke:#000;stroke-linecap:round;stroke-linejoin:round;stroke-width:3px"/><path d="M68.24,190.38c0.18,0-6.13-8-8.64-8.68s-20.9-6.41-24.16-7-9.8.72-14.76,7S15,190.37,15,190.37s10.89-9.67,15.18-9.45,18.41,6.51,25,8.41a43.3,43.3,0,0,0,13.16,1.48" transform="translate(-0.05 0)" style="fill:none;stroke:#000;stroke-linecap:round;stroke-linejoin:round;stroke-width:3px"/><path d="M26.94,207s1.35-1.34,4.08-3.55A19.38,19.38,0,0,1,47.13,199c8.19,1.34,15.42,12.36,15.5,12.54,0,0-.78.13-4.44,0.89s-6.41,4.19-15.85,3.14S26.94,207,26.94,207Z" transform="translate(-0.05 0)" style="fill:none;stroke:#000;stroke-linecap:round;stroke-linejoin:round;stroke-width:3px"/><ellipse cx="44.57" cy="205.65" rx="6.33" ry="5.89" transform="translate(-18.37 4.85) rotate(-5.16)"/><path d="M146.49,143.32c5.56,12-5,18,6.71,29.68,4.45,4.44-2.73,38.54-5.15,54.5-2.11,13.85-6.57,45.49-15.58,56.41s-22.65,22.58-30.52,29.23c-7.09,6-15.44,4.54-17.76,4.06s-3.8,0-10.21.17-10-2.47-14.07-7S35,283.78,30.21,275.25,23.71,252,20.4,242.68s-7.62-24.31-7.23-34.25c0.77-20.1-.13-35.91-1.07-42-0.83-5.33-.74-10.64,1.38-18.36" transform="translate(-0.05 0)" style="fill:none;stroke:#000;stroke-linecap:round;stroke-linejoin:round;stroke-width:3px"/><path d="M148.49,224.67s-4.19,15.68-7.32,21.49-4.12,6.4-4.12,6.4" transform="translate(-0.05 0)" style="fill:none;stroke:#000;stroke-linecap:round;stroke-linejoin:round;stroke-width:3px"/><path d="M66.32,241.62S61.38,249,62.8,252.16s3.51,2.47,6.26,2.26,5.62,3.55,9.84,3.41c4.58-.15,6-3.59,8.65-3.82,2-.18,7.87.58,8.41-3.49s-3.64-8.74-3.64-8.74" transform="translate(-0.05 0)" style="fill:none;stroke:#000;stroke-linecap:round;stroke-linejoin:round;stroke-width:3px"/><path d="M53.7,276.91s8.72,2.64,14.61,2.27,9.93,1.76,12.88,1.42c6-.68,6.86-2,13.95-2.16,6-.13,12.27-3.63,12.27-3.63" transform="translate(-0.05 0)" style="fill:none;stroke:#000;stroke-linecap:round;stroke-linejoin:round;stroke-width:3px"/><path d="M107.9,274.94c-2.21.65-18.52-3.95-19.81-3.59s-6,2.58-6.8,2.65-6.56-2.7-7.94-2.66-17,6-19.65,5.56c0.43,0.55,10.27,7.72,13,9.9,4.92,3.92,10.66,3.15,15.83,2.67,5.71-.53,8,0.69,12.25-2.14,6-4,8.82-10.62,13.11-12.4" transform="translate(-0.05 0)" style="fill:none;stroke:#000;stroke-linecap:round;stroke-linejoin:round;stroke-width:3px"/><path d="M18.43,236.58S11.6,234.87,11,230s-0.57-18.55-2.22-25.17-6.9-16.42-6.08-24.54a14.7,14.7,0,0,1,3.44-8.5" transform="translate(-0.05 0)" style="fill:none;stroke:#000;stroke-linecap:round;stroke-linejoin:round;stroke-width:3px"/><path d="M146.4,232s7.38-2.46,8.23-7.29,1-15.62,2.91-22.15,7.7-15.74,8.26-23.88c0.23-3.35-1.44-6.28-2.27-8.18" transform="translate(-0.05 0)" style="fill:none;stroke:#000;stroke-linecap:round;stroke-linejoin:round;stroke-width:3px"/><path d="M108.71,66.38c15.22,5.44,28.91,17.7,39.19,32.21,13.65,19.26,13.65,37.06,14.59,49.59,0.68,9,1.68,21.53-1.51,30.62a171.51,171.51,0,0,1-7.8,17.24" transform="translate(-0.05 0)" style="fill:none;stroke:#000;stroke-linecap:round;stroke-linejoin:round;stroke-width:3px"/><path d="M13.46,193.67c-2.3-12.72-22.64-57.2-4.33-86.44,9.61-15.34,22.15-27.59,37.39-35.11" transform="translate(-0.05 0)" style="fill:none;stroke:#000;stroke-linecap:round;stroke-linejoin:round;stroke-width:3px"/><path d="M74.6,295.8s8.42,1.79,14.88.29" transform="translate(-0.05 0)" style="fill:none;stroke:#000;stroke-linecap:round;stroke-linejoin:round;stroke-width:3px"/><path d="M81.19,280.86a7.26,7.26,0,0,0,.4,2" transform="translate(-0.05 0)" style="fill:none;stroke:#000;stroke-linecap:round;stroke-linejoin:round;stroke-width:3px"/><path d="M130.33,204.4s3.37,3.82,7.31,3.35" transform="translate(-0.05 0)" style="fill:none;stroke:#000;stroke-linecap:round;stroke-linejoin:round;stroke-width:3px"/><path d="M21.43,200.57s1.17,0.92,4.09-.37a32.65,32.65,0,0,0,3.82-2.44,24.16,24.16,0,0,1,17.23-4.88c9.72,0.79,16.7,11.65,16.7,11.65" transform="translate(-0.05 0)" style="fill:none;stroke:#000;stroke-linecap:round;stroke-linejoin:round;stroke-width:3px"/><line x1="20.38" y1="127.22" x2="20.38" y2="163.43" style="fill:none;stroke:#000;stroke-linecap:round;stroke-linejoin:round;stroke-width:3px"/><line x1="29.99" y1="121.22" x2="29.99" y2="161.43" style="fill:none;stroke:#000;stroke-linecap:round;stroke-linejoin:round;stroke-width:3px"/><line x1="40.59" y1="143.33" x2="40.59" y2="156.43" style="fill:none;stroke:#000;stroke-linecap:round;stroke-linejoin:round;stroke-width:3px"/><line x1="40.59" y1="118.22" x2="40.59" y2="136.71" style="fill:none;stroke:#000;stroke-linecap:round;stroke-linejoin:round;stroke-width:3px"/><line x1="51.57" y1="114.22" x2="51.57" y2="153.25" style="fill:none;stroke:#000;stroke-linecap:round;stroke-linejoin:round;stroke-width:3px"/><path d="M51.63,123.44" transform="translate(-0.05 0)" style="fill:none;stroke:#000;stroke-linecap:round;stroke-linejoin:round;stroke-width:3px"/><line x1="62.49" y1="127.22" x2="62.49" y2="152.43" style="fill:none;stroke:#000;stroke-linecap:round;stroke-linejoin:round;stroke-width:3px"/><line x1="62.49" y1="112.84" x2="62.49" y2="122.07" style="fill:none;stroke:#000;stroke-linecap:round;stroke-linejoin:round;stroke-width:3px"/><line x1="73.88" y1="111.22" x2="73.88" y2="151.43" style="fill:none;stroke:#000;stroke-linecap:round;stroke-linejoin:round;stroke-width:3px"/><line x1="84.27" y1="110.22" x2="84.27" y2="151.43" style="fill:none;stroke:#000;stroke-linecap:round;stroke-linejoin:round;stroke-width:3px"/><line x1="95.95" y1="111.22" x2="95.95" y2="151.43" style="fill:none;stroke:#000;stroke-linecap:round;stroke-linejoin:round;stroke-width:3px"/><line x1="107.52" y1="112.22" x2="107.52" y2="152.43" style="fill:none;stroke:#000;stroke-linecap:round;stroke-linejoin:round;stroke-width:3px"/><line x1="117.17" y1="113.22" x2="117.17" y2="153.43" style="fill:none;stroke:#000;stroke-linecap:round;stroke-linejoin:round;stroke-width:3px"/><line x1="128.08" y1="115.22" x2="128.08" y2="155.43" style="fill:none;stroke:#000;stroke-linecap:round;stroke-linejoin:round;stroke-width:3px"/><line x1="137.59" y1="121.22" x2="137.59" y2="157.43" style="fill:none;stroke:#000;stroke-linecap:round;stroke-linejoin:round;stroke-width:3px"/><path d="M73.67,19.28C83.55,7.42,93.12,16.4,98.4,18.7c9.68,4.22,17.72,11.11,14.47,26.59-2.6,12.4,2.44,32-26,22.5" transform="translate(-0.05 0)" style="fill:none;stroke:#000;stroke-linecap:round;stroke-linejoin:round;stroke-width:3px"/><path d="M73.67,78.31S54,67.41,61.73,41a72.59,72.59,0,0,1,5.14-12.71" transform="translate(-0.05 0)" style="fill:none;stroke:#000;stroke-linecap:round;stroke-linejoin:round;stroke-width:3px"/><path d="M79.62,47.08c2.15,1.25,3.41,2.38,5.93,2.38" transform="translate(-0.05 0)" style="fill:none;stroke:#000;stroke-linecap:round;stroke-linejoin:round;stroke-width:3px"/><path d="M59.81,25C60.38,35.4,65,37.6,74.94,44.3" transform="translate(-0.05 0)" style="fill:none;stroke:#000;stroke-linecap:round;stroke-linejoin:round;stroke-width:3px"/><path d="M85.55,37.6S50.89,17.68,69,1.5" transform="translate(-0.05 0)" style="fill:none;stroke:#000;stroke-linecap:round;stroke-linejoin:round;stroke-width:3px"/><path d="M98.78,56s12.15,6.77,13.25-2.81" transform="translate(-0.05 0)" style="fill:none;stroke:#000;stroke-linecap:round;stroke-linejoin:round;stroke-width:3px"/></svg>