<svg id="9b06d721-9c7f-4908-bc76-59be6475598f" data-name="Layer 1" xmlns="http://www.w3.org/2000/svg" viewBox="0 0 172 205"><title>points</title><circle cx="4.5" cy="4.5" r="4.5"/><circle cx="4.5" cy="32.5" r="4.5"/><circle cx="4.5" cy="60.5" r="4.5"/><circle cx="4.5" cy="88.5" r="4.5"/><circle cx="4.5" cy="116.5" r="4.5"/><circle cx="4.5" cy="144.5" r="4.5"/><circle cx="4.5" cy="172.5" r="4.5"/><circle cx="4.5" cy="200.5" r="4.5"/><circle cx="27.5" cy="4.5" r="4.5"/><circle cx="27.5" cy="32.5" r="4.5"/><circle cx="27.5" cy="60.5" r="4.5"/><circle cx="27.5" cy="88.5" r="4.5"/><circle cx="27.5" cy="116.5" r="4.5"/><circle cx="27.5" cy="144.5" r="4.5"/><circle cx="27.5" cy="172.5" r="4.5"/><circle cx="27.5" cy="200.5" r="4.5"/><circle cx="51.5" cy="4.5" r="4.5"/><circle cx="51.5" cy="32.5" r="4.5"/><circle cx="51.5" cy="60.5" r="4.5"/><circle cx="51.5" cy="88.5" r="4.5"/><circle cx="51.5" cy="116.5" r="4.5"/><circle cx="51.5" cy="144.5" r="4.5"/><circle cx="51.5" cy="172.5" r="4.5"/><circle cx="51.5" cy="200.5" r="4.5"/><circle cx="74.5" cy="4.5" r="4.5"/><circle cx="74.5" cy="32.5" r="4.5"/><circle cx="74.5" cy="60.5" r="4.5"/><circle cx="74.5" cy="88.5" r="4.5"/><circle cx="74.5" cy="116.5" r="4.5"/><circle cx="74.5" cy="144.5" r="4.5"/><circle cx="74.5" cy="172.5" r="4.5"/><circle cx="74.5" cy="200.5" r="4.5"/><circle cx="97.5" cy="4.5" r="4.5"/><circle cx="97.5" cy="32.5" r="4.5"/><circle cx="97.5" cy="60.5" r="4.5"/><circle cx="97.5" cy="88.5" r="4.5"/><circle cx="97.5" cy="116.5" r="4.5"/><circle cx="97.5" cy="144.5" r="4.5"/><circle cx="97.5" cy="172.5" r="4.5"/><circle cx="97.5" cy="200.5" r="4.5"/><circle cx="120.5" cy="4.5" r="4.5"/><circle cx="120.5" cy="32.5" r="4.5"/><circle cx="120.5" cy="60.5" r="4.5"/><circle cx="120.5" cy="88.5" r="4.5"/><circle cx="120.5" cy="116.5" r="4.5"/><circle cx="120.5" cy="144.5" r="4.5"/><circle cx="120.5" cy="172.5" r="4.5"/><circle cx="120.5" cy="200.5" r="4.5"/><circle cx="144.5" cy="4.5" r="4.5"/><circle cx="144.5" cy="32.5" r="4.5"/><circle cx="144.5" cy="60.5" r="4.5"/><circle cx="144.5" cy="88.5" r="4.5"/><circle cx="144.5" cy="116.5" r="4.5"/><circle cx="144.5" cy="144.5" r="4.5"/><circle cx="144.5" cy="172.5" r="4.5"/><circle cx="144.5" cy="200.5" r="4.5"/><circle cx="167.5" cy="4.5" r="4.5"/><circle cx="167.5" cy="32.5" r="4.5"/><circle cx="167.5" cy="60.5" r="4.5"/><circle cx="167.5" cy="88.5" r="4.5"/><circle cx="167.5" cy="116.5" r="4.5"/><circle cx="167.5" cy="144.5" r="4.5"/><circle cx="167.5" cy="172.5" r="4.5"/><circle cx="167.5" cy="200.5" r="4.5"/></svg>