<svg id="Layer_1" data-name="Layer 1" xmlns="http://www.w3.org/2000/svg" viewBox="0 0 165.51 242.72"><title>face_4</title><path d="M14.61,103.49s0.18,35.65,10.31,80.08c5.22,22.87,14.6,28.51,22.64,39.08,15.29,19.59,29,18.2,32.22,18.51" transform="translate(-0.14 -0.43)" style="fill:none;stroke:#000;stroke-linecap:round;stroke-linejoin:round;stroke-width:3.68503928184509px"/><path d="M36.21,133.4c1.61,0.17,8.22-3.87,14.59-3.45,4.77,0.31,11.73,3.45,14.94,5.43" transform="translate(-0.14 -0.43)" style="fill:none;stroke:#000;stroke-linecap:round;stroke-linejoin:round;stroke-width:3.68503928184509px"/><path d="M55.65,197.22a11,11,0,0,1,5.89,2.33c1.62,0.36,4.93,0,7.63,0s5.9-.54,11.18,1.25" transform="translate(-0.14 -0.43)" style="fill:none;stroke:#000;stroke-linecap:round;stroke-linejoin:round;stroke-width:3.68503928184509px"/><path d="M73.58,132.72c2.63,1.91,3.26,3.34,3.26,4.57a27.79,27.79,0,0,1,0,7.25" transform="translate(-0.14 -0.43)" style="fill:none;stroke:#000;stroke-linecap:round;stroke-linejoin:round;stroke-width:3.68503928184509px"/><path d="M15.73,124.2c-2.27-6-8.45-5.44-8.45-5.44s-6-.73-3.61,8.11,7.41,24.29,7.41,24.29L13,166.32s2.64,5.49,5.29,2.63,2.64-4.3,2.64-4.3" transform="translate(-0.14 -0.43)" style="fill:none;stroke:#000;stroke-linecap:round;stroke-linejoin:round;stroke-width:3.68503928184509px"/><path d="M40.26,138.16a20.25,20.25,0,0,0,9.5,4.11,25.45,25.45,0,0,0,7.5-.8" transform="translate(-0.14 -0.43)" style="fill:none;stroke:#000;stroke-linecap:round;stroke-linejoin:round;stroke-width:3.68503928184509px"/><path d="M10,113.65c0-11.63,13.53-21.11,18.51-24,6.65-3.81,20.45-8.26,48.67-8.26" transform="translate(-0.14 -0.43)" style="fill:none;stroke:#000;stroke-linecap:round;stroke-linejoin:round;stroke-width:3.68503928184509px"/><path d="M152.93,112.21c0-12-12.82-19.28-18.19-22.23-7.17-3.94-27.15-8.55-57.59-8.55" transform="translate(-0.14 -0.43)" style="fill:none;stroke:#000;stroke-linecap:round;stroke-linejoin:round;stroke-width:3.68503928184509px"/><path d="M10.36,64.57s6.18-21.1,14.11-29S48.26,26.28,70.07,9.1,98.73,12,107,17c7.91,4.78,41.06,21.6,45.37,49.23,0.21,1.34.65,4.92,3.13,7.61,7.19,7.83,13.47,30,1.87,38.39" transform="translate(-0.14 -0.43)" style="fill:none;stroke:#000;stroke-linecap:round;stroke-linejoin:round;stroke-width:3.68503928184509px"/><path d="M69.86,221.07s8.47-3.4,22.38,0" transform="translate(-0.14 -0.43)" style="fill:none;stroke:#000;stroke-linecap:round;stroke-linejoin:round;stroke-width:3.68503928184509px"/><path d="M4,109.85s-2.52-3.78-2-10.92c0-12.43,1.8-19.1,3.51-22.64,1.56-3.23,5-5.67,6.17-6.54,23.86-18,99.68-26.84,134.37,1" transform="translate(-0.14 -0.43)" style="fill:none;stroke:#000;stroke-linecap:round;stroke-linejoin:round;stroke-width:3.68503928184509px"/><line x1="34.75" y1="121.59" x2="34.75" y2="116.44" style="fill:none;stroke:#000;stroke-linecap:round;stroke-linejoin:round;stroke-width:3.68503928184509px"/><line x1="28.64" y1="120.07" x2="28.64" y2="118.91" style="fill:none;stroke:#000;stroke-linecap:round;stroke-linejoin:round;stroke-width:3.68503928184509px"/><line x1="41.27" y1="121.59" x2="41.27" y2="114.72" style="fill:none;stroke:#000;stroke-linecap:round;stroke-linejoin:round;stroke-width:3.68503928184509px"/><line x1="54.29" y1="124.27" x2="54.29" y2="118.16" style="fill:none;stroke:#000;stroke-linecap:round;stroke-linejoin:round;stroke-width:3.68503928184509px"/><line x1="61.2" y1="126.34" x2="61.2" y2="121.21" style="fill:none;stroke:#000;stroke-linecap:round;stroke-linejoin:round;stroke-width:3.68503928184509px"/><line x1="47.91" y1="123.41" x2="47.91" y2="116.73" style="fill:none;stroke:#000;stroke-linecap:round;stroke-linejoin:round;stroke-width:3.68503928184509px"/><line x1="126.62" y1="121.59" x2="126.62" y2="116.44" style="fill:none;stroke:#000;stroke-linecap:round;stroke-linejoin:round;stroke-width:3.68503928184509px"/><line x1="132.73" y1="120.07" x2="132.73" y2="118.91" style="fill:none;stroke:#000;stroke-linecap:round;stroke-linejoin:round;stroke-width:3.68503928184509px"/><line x1="120.1" y1="121.59" x2="120.1" y2="114.72" style="fill:none;stroke:#000;stroke-linecap:round;stroke-linejoin:round;stroke-width:3.68503928184509px"/><line x1="107.08" y1="124.27" x2="107.08" y2="118.16" style="fill:none;stroke:#000;stroke-linecap:round;stroke-linejoin:round;stroke-width:3.68503928184509px"/><line x1="100.17" y1="126.34" x2="100.17" y2="121.21" style="fill:none;stroke:#000;stroke-linecap:round;stroke-linejoin:round;stroke-width:3.68503928184509px"/><line x1="113.46" y1="123.41" x2="113.46" y2="116.73" style="fill:none;stroke:#000;stroke-linecap:round;stroke-linejoin:round;stroke-width:3.68503928184509px"/><ellipse cx="51.42" cy="133.72" rx="4.28" ry="4.25"/><path d="M125.55,133.4c-1.61.17-8.22-3.87-14.59-3.45-4.77.31-11.73,3.45-14.94,5.43" transform="translate(-0.14 -0.43)" style="fill:none;stroke:#000;stroke-linecap:round;stroke-linejoin:round;stroke-width:3.68503928184509px"/><path d="M121.5,138.16a20.25,20.25,0,0,1-9.5,4.11,25.45,25.45,0,0,1-7.5-.8" transform="translate(-0.14 -0.43)" style="fill:none;stroke:#000;stroke-linecap:round;stroke-linejoin:round;stroke-width:3.68503928184509px"/><ellipse cx="110.07" cy="133.72" rx="4.28" ry="4.25"/><path d="M147.16,102.09a417.34,417.34,0,0,1-9.73,81.33c-5,22.91-14.39,28.61-22.35,39.25C102.3,239.28,90.55,241,85.25,241.28c-1,.06-3.22,0-6.32-0.11" transform="translate(-0.14 -0.43)" style="fill:none;stroke:#000;stroke-linecap:round;stroke-linejoin:round;stroke-width:3.68503928184509px"/><path d="M106.62,197.22a11,11,0,0,0-5.89,2.33c-1.62.36-4.93,0-7.63,0s-7.93-.72-11.18,1.25" transform="translate(-0.14 -0.43)" style="fill:none;stroke:#000;stroke-linecap:round;stroke-linejoin:round;stroke-width:3.68503928184509px"/><path d="M71.17,178.26c2.88-1.43,5.16,3.45,8.64,3.45" transform="translate(-0.14 -0.43)" style="fill:none;stroke:#000;stroke-linecap:round;stroke-linejoin:round;stroke-width:3.68503928184509px"/><path d="M67.4,164.33s-5.54,14.61,2.93,14.47" transform="translate(-0.14 -0.43)" style="fill:none;stroke:#000;stroke-linecap:round;stroke-linejoin:round;stroke-width:3.68503928184509px"/><path d="M89.5,178.26c-2.88-1.43-5.16,3.45-8.64,3.45" transform="translate(-0.14 -0.43)" style="fill:none;stroke:#000;stroke-linecap:round;stroke-linejoin:round;stroke-width:3.68503928184509px"/><path d="M94.35,164.33s5.54,14.61-2.93,14.47" transform="translate(-0.14 -0.43)" style="fill:none;stroke:#000;stroke-linecap:round;stroke-linejoin:round;stroke-width:3.68503928184509px"/><path d="M94,128.81c-2.9,3.06-8.6,7.09-8.6,8.48a59.59,59.59,0,0,0,.24,9.36" transform="translate(-0.14 -0.43)" style="fill:none;stroke:#000;stroke-linecap:round;stroke-linejoin:round;stroke-width:3.68503928184509px"/><path d="M146.17,125.92c2.53-7.34,8.82-7.16,8.82-7.16s6-.73,3.61,8.11-7.49,24.34-7.49,24.34l-1.81,14.1s-2.64,5.49-5.29,2.63-2.64-4.3-2.64-4.3" transform="translate(-0.14 -0.43)" style="fill:none;stroke:#000;stroke-linecap:round;stroke-linejoin:round;stroke-width:3.68503928184509px"/><path d="M80.44,211.19a28.38,28.38,0,0,0-7.76.57,8.67,8.67,0,0,1-2.15.07c-3.93-1.44-8-7.4-10-11.87" transform="translate(-0.14 -0.43)" style="fill:none;stroke:#000;stroke-linecap:round;stroke-linejoin:round;stroke-width:3.68503928184509px"/><path d="M80.24,211.19a28.38,28.38,0,0,1,7.76.57,8.67,8.67,0,0,0,2.15.07c3.93-1.44,8-7.4,10-11.87" transform="translate(-0.14 -0.43)" style="fill:none;stroke:#000;stroke-linecap:round;stroke-linejoin:round;stroke-width:3.68503928184509px"/><path d="M85.68,146.65c0.71,3.48-1.3,13.63,0,15.57,1.12,1.67,3.85,5,3.92,8.75" transform="translate(-0.14 -0.43)" style="fill:none;stroke:#000;stroke-linecap:round;stroke-linejoin:round;stroke-width:3.68503928184509px"/><path d="M109.95,153.62A22.28,22.28,0,0,1,99.05,146" transform="translate(-0.14 -0.43)" style="fill:none;stroke:#000;stroke-linecap:round;stroke-linejoin:round;stroke-width:3.68503928184509px"/><path d="M143.1,152a91.24,91.24,0,0,1-13.58,28" transform="translate(-0.14 -0.43)" style="fill:none;stroke:#000;stroke-linecap:round;stroke-linejoin:round;stroke-width:3.68503928184509px"/><path d="M18.8,152A86.47,86.47,0,0,0,27,171.57" transform="translate(-0.14 -0.43)" style="fill:none;stroke:#000;stroke-linecap:round;stroke-linejoin:round;stroke-width:3.68503928184509px"/></svg>