<svg id="Layer_1" data-name="Layer 1" xmlns="http://www.w3.org/2000/svg" viewBox="0 0 350.54 425.13">
    <title>face_1</title>
    <path d="M176.27,427.89" transform="translate(-0.21 -0.13)"
          style="fill:none;stroke:#000;stroke-linecap:round;stroke-linejoin:round;stroke-width:3.68503928184509px"/>
    <path d="M117.41,404.18" transform="translate(-0.21 -0.13)"
          style="fill:none;stroke:#000;stroke-linecap:round;stroke-linejoin:round;stroke-width:3.68503928184509px"/>
    <path d="M66.07,318.56" transform="translate(-0.21 -0.13)"
          style="fill:none;stroke:#000;stroke-linecap:round;stroke-linejoin:round;stroke-width:3.68503928184509px"/>
    <path d="M45.76,159.69" transform="translate(-0.21 -0.13)"
          style="fill:none;stroke:#000;stroke-linecap:round;stroke-linejoin:round;stroke-width:3.68503928184509px"/>
    <path d="M83.33,217.75c8.54-9.1,15.24-14,27.33-14.2,13.56-.22,15.56-0.11,22.11,5.38,5.52,4.63,12,15.69,12,15.69"
          transform="translate(-0.21 -0.13)"
          style="fill:none;stroke:#000;stroke-linecap:round;stroke-linejoin:round;stroke-width:3.68503928184509px"/>
    <path d="M49.67,200.78C46.21,189,36.77,190,36.77,190s-5.44-1.59-7.83,9.11a41.22,41.22,0,0,0,.75,14.1c2,10.61,2.37,21.23,2.56,30.84a101.37,101.37,0,0,0,4.18,27.82c1.78,5.6,7.7,14.21,10.84,17.28A9.78,9.78,0,0,0,54.16,292c7.53,0.16,9.09-9.08,9.09-9.08"
          transform="translate(-0.21 -0.13)"
          style="fill:none;stroke:#000;stroke-linecap:round;stroke-linejoin:round;stroke-width:3.68503928184509px"/>
    <path d="M89.83,224.9c3.92,9.37,15.73,11.09,23.37,11.07a47.89,47.89,0,0,0,14.21-1.53"
          transform="translate(-0.21 -0.13)"
          style="fill:none;stroke:#000;stroke-linecap:round;stroke-linejoin:round;stroke-width:3.68503928184509px"/>
    <circle cx="114.45" cy="220.64" r="8.5"
            style="fill:none;stroke:#000;stroke-linecap:round;stroke-linejoin:round;stroke-width:3.68503928184509px"/>
    <circle cx="229.94" cy="222.64" r="8.5"
            style="fill:none;stroke:#000;stroke-linecap:round;stroke-linejoin:round;stroke-width:3.68503928184509px"/>
    <path d="M174.07,314.26c-11.09,0-10.56-8.48-17.21-9.64-5.52-1-3.76,4.77-3.76,4.77"
          transform="translate(-0.21 -0.13)"
          style="fill:none;stroke:#000;stroke-linecap:round;stroke-linejoin:round;stroke-width:3.68503928184509px"/>
    <path d="M175.77,338.11s-5.75-2.23-9.3-2.23a14.71,14.71,0,0,0-4.75.92C155,339,139.94,350,139.94,350"
          transform="translate(-0.21 -0.13)"
          style="fill:none;stroke:#000;stroke-linecap:round;stroke-linejoin:round;stroke-width:3.68503928184509px"/>
    <path d="M89.09,219.71s1.73,0,5.75-2.24a41.61,41.61,0,0,1,8.84-4,29.23,29.23,0,0,1,21,2.06,55,55,0,0,1,13.15,9.41"
          transform="translate(-0.21 -0.13)"
          style="fill:none;stroke:#000;stroke-linecap:round;stroke-linejoin:round;stroke-width:3.68503928184509px"/>
    <path d="M146.22,189.93c3.69,1.65,2.13,9.12,0,8.77L133,195.81l-36.7-8a11.54,11.54,0,0,0-7.69,0,45.58,45.58,0,0,0-14.12,5.46,119.89,119.89,0,0,1,9.41-8.8,24.41,24.41,0,0,1,8.64-4.86s3.85-.52,6.42-0.78c1.61-.16,11.91,2,22.47,4.45,4.85,1.13,9.77,2.33,13.92,3.39"
          transform="translate(-0.21 -0.13)"
          style="fill:none;stroke:#000;stroke-linecap:round;stroke-linejoin:round;stroke-width:3.68503928184509px"/>
    <path d="M153.09,309.38c-6.32-1.79-10-12.07-4.27-16.67" transform="translate(-0.21 -0.13)"
          style="fill:none;stroke:#000;stroke-linecap:round;stroke-linejoin:round;stroke-width:3.68503928184509px"/>
    <path d="M163.08,209.32a18.61,18.61,0,0,1,5.91,14c0,9.27-2.68,52.22-2.68,52.22" transform="translate(-0.21 -0.13)"
          style="fill:none;stroke:#000;stroke-linecap:round;stroke-linejoin:round;stroke-width:3.68503928184509px"/>
    <path d="M304.37,154.87s-4.36,43.42-10.24,99.85c-2.73,26.15-5.68,18-9.38,38.46-2.05,11.37-4.61,41.84-7.47,50-12.42,35.31-31,43.52-43.91,56.59-24.81,26.49-52.46,23.09-58.86,23.7"
          transform="translate(-0.21 -0.13)"
          style="fill:none;stroke:#000;stroke-linecap:round;stroke-linejoin:round;stroke-width:3.68503928184509px"/>
    <path d="M45.76,159.69s4.63,38.59,10.52,95c2.73,26.15,5.68,18,9.38,38.46,2.05,11.37,4.61,41.84,7.47,50,12.42,35.31,31,43.52,43.91,56.59,24.81,26.49,52.46,23.09,58.86,23.7"
          transform="translate(-0.21 -0.13)"
          style="fill:none;stroke:#000;stroke-linecap:round;stroke-linejoin:round;stroke-width:3.68503928184509px"/>
    <path d="M300.87,200.78C304.25,189,313.46,190,313.46,190s5.31-1.59,7.64,9.11a42.23,42.23,0,0,1-.73,14.1c-2,10.61-2.32,21.23-2.5,30.84a103.69,103.69,0,0,1-4.08,27.82c-1.74,5.6-7.51,14.21-10.58,17.28A10.27,10.27,0,0,1,296.5,292c-6.81.69-8.79-10.76-8.79-10.76"
          transform="translate(-0.21 -0.13)"
          style="fill:none;stroke:#000;stroke-linecap:round;stroke-linejoin:round;stroke-width:3.68503928184509px"/>
    <path d="M174.48,314.26c11.09,0,9.45-8.48,16.09-9.64,5.52-1,3.27,4.77,3.27,4.77" transform="translate(-0.21 -0.13)"
          style="fill:none;stroke:#000;stroke-linecap:round;stroke-linejoin:round;stroke-width:3.68503928184509px"/>
    <path d="M261.85,218.83c-5.43-6.55-9-10.47-11.41-12.81-3.48-3.44-6.26-3.45-9.18-3.33-7,.29-19.59,2.18-23.49,3.87-6.61,2.86-17.32,19.13-17.32,19.13"
          transform="translate(-0.21 -0.13)"
          style="fill:none;stroke:#000;stroke-linecap:round;stroke-linejoin:round;stroke-width:3.68503928184509px"/>
    <path d="M255.35,226c-3.92,9.37-15.73,11.09-23.37,11.07a47.89,47.89,0,0,1-14.21-1.53"
          transform="translate(-0.21 -0.13)"
          style="fill:none;stroke:#000;stroke-linecap:round;stroke-linejoin:round;stroke-width:3.68503928184509px"/>
    <path d="M253.84,221.55s-3.22-4.27-12.34-7a29.23,29.23,0,0,0-21,2.06A55,55,0,0,0,207.31,226"
          transform="translate(-0.21 -0.13)"
          style="fill:none;stroke:#000;stroke-linecap:round;stroke-linejoin:round;stroke-width:3.68503928184509px"/>
    <path d="M213.08,209.55" transform="translate(-0.21 -0.13)"
          style="fill:none;stroke:#000;stroke-linecap:round;stroke-linejoin:round;stroke-width:3.68503928184509px"/>
    <path d="M236.06,204" transform="translate(-0.21 -0.13)"
          style="fill:none;stroke:#000;stroke-linecap:round;stroke-linejoin:round;stroke-width:3.68503928184509px"/>
    <path d="M251.7,182.57a12.1,12.1,0,0,1,8.06,0c9.17,2,16.37,12,16.37,12s-6.42-11.41-11.44-15.52a25.6,25.6,0,0,0-9.06-5.1s-4-.55-6.73-0.82c-3.68-.37-49,17.07-48,18-3.87,1.73-2.24,9.56,0,9.2l13.12-4.59"
          transform="translate(-0.21 -0.13)"
          style="fill:none;stroke:#000;stroke-linecap:round;stroke-linejoin:round;stroke-width:3.68503928184509px"/>
    <path d="M195,309.38c6.32-1.79,9.28-12.07,3.59-16.67" transform="translate(-0.21 -0.13)"
          style="fill:none;stroke:#000;stroke-linecap:round;stroke-linejoin:round;stroke-width:3.68503928184509px"/>
    <path d="M182.56,242.44c0.79,15.19,1.91,33.13,1.91,33.13l5.17,11.54" transform="translate(-0.21 -0.13)"
          style="fill:none;stroke:#000;stroke-linecap:round;stroke-linejoin:round;stroke-width:3.68503928184509px"/>
    <path d="M45.76,159.69c-1.75-20.8,7-51.17,54.84-76.39,22.69-12,48.17-6,73.41-5.79,21.76,0.16,54.88-4.06,76.54,7.8,58.1,31.82,53.81,69.55,53.81,69.55"
          transform="translate(-0.21 -0.13)"
          style="fill:none;stroke:#000;stroke-linecap:round;stroke-linejoin:round;stroke-width:3.68503928184509px"/>
    <path d="M139.94,360.05s6.1,4.23,12.41,8.76S162,372.7,162,372.7h12.27" transform="translate(-0.21 -0.13)"
          style="fill:none;stroke:#000;stroke-linecap:round;stroke-linejoin:round;stroke-width:3.68503928184509px"/>
    <path d="M142.48,355.5a157.08,157.08,0,0,1,31.8,1.67" transform="translate(-0.21 -0.13)"
          style="fill:none;stroke:#000;stroke-linecap:round;stroke-linejoin:round;stroke-width:3.68503928184509px"/>
    <path d="M142.48,350a67.88,67.88,0,0,1,33.29-4.25" transform="translate(-0.21 -0.13)"
          style="fill:none;stroke:#000;stroke-linecap:round;stroke-linejoin:round;stroke-width:3.68503928184509px"/>
    <path d="M175.12,338.11s5.75-2.23,9.3-2.23a14.71,14.71,0,0,1,4.75.92C195.93,339,211,350,211,350"
          transform="translate(-0.21 -0.13)"
          style="fill:none;stroke:#000;stroke-linecap:round;stroke-linejoin:round;stroke-width:3.68503928184509px"/>
    <path d="M211,360.05s-6.1,4.23-12.41,8.76-9.66,3.88-9.66,3.88H176.61" transform="translate(-0.21 -0.13)"
          style="fill:none;stroke:#000;stroke-linecap:round;stroke-linejoin:round;stroke-width:3.68503928184509px"/>
    <path d="M208.41,355.5a157.08,157.08,0,0,0-31.8,1.67" transform="translate(-0.21 -0.13)"
          style="fill:none;stroke:#000;stroke-linecap:round;stroke-linejoin:round;stroke-width:3.68503928184509px"/>
    <path d="M208.41,350a67.88,67.88,0,0,0-33.29-4.25" transform="translate(-0.21 -0.13)"
          style="fill:none;stroke:#000;stroke-linecap:round;stroke-linejoin:round;stroke-width:3.68503928184509px"/>
    <path d="M70.63,83.47c-20.2,3.38-35.83-33-.65-39.71,5.93-1.13,78.72,23.1,90.37,18"
          transform="translate(-0.21 -0.13)"
          style="fill:none;stroke:#000;stroke-linecap:round;stroke-linejoin:round;stroke-width:3.68503928184509px"/>
    <path d="M174,54.65V18.18" transform="translate(-0.21 -0.13)"
          style="fill:none;stroke:#000;stroke-linecap:round;stroke-linejoin:round;stroke-width:3.68503928184509px"/>
    <path d="M140,17.82c16.41-11.8,68-5.54,72.61.36" transform="translate(-0.21 -0.13)"
          style="fill:none;stroke:#000;stroke-linecap:round;stroke-linejoin:round;stroke-width:3.68503928184509px"/>
    <path d="M130.57,17.79C107.46,17.79,108.8,1,89.46,2S38,37,25.81,79.4c-46.2,160.69-15.38,209.33,11.25,220.74s31.19,12.42,31.19,12.42"
          transform="translate(-0.21 -0.13)"
          style="fill:none;stroke:#000;stroke-linecap:round;stroke-linejoin:round;stroke-width:3.68503928184509px"/>
    <path d="M279.31,83.63c19.83,3.32,35.18-32.41.64-39-5.82-1.11-77.28,22.67-88.72,17.71"
          transform="translate(-0.21 -0.13)"
          style="fill:none;stroke:#000;stroke-linecap:round;stroke-linejoin:round;stroke-width:3.68503928184509px"/>
    <path d="M220.38,17.79C243.48,17.79,242.15,1,261.48,2S313,37,325.13,79.4c46.2,160.69,15.38,209.33-11.25,220.74s-31.61,11.38-31.61,11.38"
          transform="translate(-0.21 -0.13)"
          style="fill:none;stroke:#000;stroke-linecap:round;stroke-linejoin:round;stroke-width:3.68503928184509px"/>
    <line x1="218.99" y1="192.43" x2="240.99" y2="185.53"
          style="fill:none;stroke:#000;stroke-linecap:round;stroke-linejoin:round;stroke-width:3.68503928184509px"/>
    <path d="M60,272.67c2.8,7.42,12.48,20.56,21.45,31.84" transform="translate(-0.21 -0.13)"
          style="fill:none;stroke:#000;stroke-linecap:round;stroke-linejoin:round;stroke-width:3.68503928184509px"/>
</svg>