<svg id="f21e3a36-9308-4d28-9083-d0ffc09abf3f" data-name="Layer 1" xmlns="http://www.w3.org/2000/svg" viewBox="0 0 205 79"><title>points_yellow_vertical_thin</title><circle cx="200.5" cy="4.5" r="4.5" style="fill:#fff623"/><circle cx="172.5" cy="4.5" r="4.5" style="fill:#fff623"/><circle cx="144.5" cy="4.5" r="4.5" style="fill:#fff623"/><circle cx="116.5" cy="4.5" r="4.5" style="fill:#fff623"/><circle cx="88.5" cy="4.5" r="4.5" style="fill:#fff623"/><circle cx="60.5" cy="4.5" r="4.5" style="fill:#fff623"/><circle cx="32.5" cy="4.5" r="4.5" style="fill:#fff623"/><circle cx="4.5" cy="4.5" r="4.5" style="fill:#fff623"/><circle cx="200.5" cy="27.5" r="4.5" style="fill:#fff623"/><circle cx="172.5" cy="27.5" r="4.5" style="fill:#fff623"/><circle cx="144.5" cy="27.5" r="4.5" style="fill:#fff623"/><circle cx="116.5" cy="27.5" r="4.5" style="fill:#fff623"/><circle cx="88.5" cy="27.5" r="4.5" style="fill:#fff623"/><circle cx="60.5" cy="27.5" r="4.5" style="fill:#fff623"/><circle cx="32.5" cy="27.5" r="4.5" style="fill:#fff623"/><circle cx="4.5" cy="27.5" r="4.5" style="fill:#fff623"/><circle cx="200.5" cy="51.5" r="4.5" style="fill:#fff623"/><circle cx="172.5" cy="51.5" r="4.5" style="fill:#fff623"/><circle cx="144.5" cy="51.5" r="4.5" style="fill:#fff623"/><circle cx="116.5" cy="51.5" r="4.5" style="fill:#fff623"/><circle cx="88.5" cy="51.5" r="4.5" style="fill:#fff623"/><circle cx="60.5" cy="51.5" r="4.5" style="fill:#fff623"/><circle cx="32.5" cy="51.5" r="4.5" style="fill:#fff623"/><circle cx="4.5" cy="51.5" r="4.5" style="fill:#fff623"/><circle cx="200.5" cy="74.5" r="4.5" style="fill:#fff623"/><circle cx="172.5" cy="74.5" r="4.5" style="fill:#fff623"/><circle cx="144.5" cy="74.5" r="4.5" style="fill:#fff623"/><circle cx="116.5" cy="74.5" r="4.5" style="fill:#fff623"/><circle cx="88.5" cy="74.5" r="4.5" style="fill:#fff623"/><circle cx="60.5" cy="74.5" r="4.5" style="fill:#fff623"/><circle cx="32.5" cy="74.5" r="4.5" style="fill:#fff623"/><circle cx="4.5" cy="74.5" r="4.5" style="fill:#fff623"/></svg>