<svg id="1c12cf48-a325-4cec-8ac6-f0da60fe1aaf" data-name="Layer 1" xmlns="http://www.w3.org/2000/svg" viewBox="0 0 205 172"><title>points_vertical</title><circle cx="200.5" cy="4.5" r="4.5"/><circle cx="172.5" cy="4.5" r="4.5"/><circle cx="144.5" cy="4.5" r="4.5"/><circle cx="116.5" cy="4.5" r="4.5"/><circle cx="88.5" cy="4.5" r="4.5"/><circle cx="60.5" cy="4.5" r="4.5"/><circle cx="32.5" cy="4.5" r="4.5"/><circle cx="4.5" cy="4.5" r="4.5"/><circle cx="200.5" cy="27.5" r="4.5"/><circle cx="172.5" cy="27.5" r="4.5"/><circle cx="144.5" cy="27.5" r="4.5"/><circle cx="116.5" cy="27.5" r="4.5"/><circle cx="88.5" cy="27.5" r="4.5"/><circle cx="60.5" cy="27.5" r="4.5"/><circle cx="32.5" cy="27.5" r="4.5"/><circle cx="4.5" cy="27.5" r="4.5"/><circle cx="200.5" cy="51.5" r="4.5"/><circle cx="172.5" cy="51.5" r="4.5"/><circle cx="144.5" cy="51.5" r="4.5"/><circle cx="116.5" cy="51.5" r="4.5"/><circle cx="88.5" cy="51.5" r="4.5"/><circle cx="60.5" cy="51.5" r="4.5"/><circle cx="32.5" cy="51.5" r="4.5"/><circle cx="4.5" cy="51.5" r="4.5"/><circle cx="200.5" cy="74.5" r="4.5"/><circle cx="172.5" cy="74.5" r="4.5"/><circle cx="144.5" cy="74.5" r="4.5"/><circle cx="116.5" cy="74.5" r="4.5"/><circle cx="88.5" cy="74.5" r="4.5"/><circle cx="60.5" cy="74.5" r="4.5"/><circle cx="32.5" cy="74.5" r="4.5"/><circle cx="4.5" cy="74.5" r="4.5"/><circle cx="200.5" cy="97.5" r="4.5"/><circle cx="172.5" cy="97.5" r="4.5"/><circle cx="144.5" cy="97.5" r="4.5"/><circle cx="116.5" cy="97.5" r="4.5"/><circle cx="88.5" cy="97.5" r="4.5"/><circle cx="60.5" cy="97.5" r="4.5"/><circle cx="32.5" cy="97.5" r="4.5"/><circle cx="4.5" cy="97.5" r="4.5"/><circle cx="200.5" cy="120.5" r="4.5"/><circle cx="172.5" cy="120.5" r="4.5"/><circle cx="144.5" cy="120.5" r="4.5"/><circle cx="116.5" cy="120.5" r="4.5"/><circle cx="88.5" cy="120.5" r="4.5"/><circle cx="60.5" cy="120.5" r="4.5"/><circle cx="32.5" cy="120.5" r="4.5"/><circle cx="4.5" cy="120.5" r="4.5"/><circle cx="200.5" cy="144.5" r="4.5"/><circle cx="172.5" cy="144.5" r="4.5"/><circle cx="144.5" cy="144.5" r="4.5"/><circle cx="116.5" cy="144.5" r="4.5"/><circle cx="88.5" cy="144.5" r="4.5"/><circle cx="60.5" cy="144.5" r="4.5"/><circle cx="32.5" cy="144.5" r="4.5"/><circle cx="4.5" cy="144.5" r="4.5"/><circle cx="200.5" cy="167.5" r="4.5"/><circle cx="172.5" cy="167.5" r="4.5"/><circle cx="144.5" cy="167.5" r="4.5"/><circle cx="116.5" cy="167.5" r="4.5"/><circle cx="88.5" cy="167.5" r="4.5"/><circle cx="60.5" cy="167.5" r="4.5"/><circle cx="32.5" cy="167.5" r="4.5"/><circle cx="4.5" cy="167.5" r="4.5"/></svg>